# xmcd
#
# Track frame offsets: 
#        150
#        15273
#        31150
#        59727
#
# Disc length: 1200 seconds
#
# Revision: 0
# Processed by: cddbd v1.4PL0 Copyright (c) Steve Scherf et al.
# Submitted via: ExactAudioCopy v0.95a3
#
DISCID=2704ae04
DTITLE=The Dandy Warhols - We used to be Friends
DYEAR=2003
DGENRE=Alternative Rock
TTITLE0=We used to be Friends
TTITLE1=Call Me
TTITLE2=Relax
TTITLE3=Zugabe
EXTD=
EXTT0=
EXTT1=
EXTT2=
EXTT3=
PLAYORDER=
